<svg xmlns="http://www.w3.org/2000/svg" viewBox="0 0 512 512">
<defs><linearGradient id="bg" x1="0" y1="0" x2="1" y2="1"><stop offset="0" stop-color="#EFDDB4"/><stop offset="1" stop-color="#D6B67E"/></linearGradient>
<radialGradient id="heat" cx="1" cy=".35" r=".9"><stop offset="0" stop-color="#FFB45A" stop-opacity=".45"/><stop offset="1" stop-color="#FFB45A" stop-opacity="0"/></radialGradient></defs>
<rect width="512" height="512" fill="url(#bg)"/><rect width="512" height="512" fill="url(#heat)"/>
<g transform="translate(256 262) rotate(32) scale(1.65) translate(-50 -100)"><defs><clipPath id="lg1c"><path d="M37 124 C28 150 38 178 50 198 C62 178 72 150 63 124 Z" /><ellipse cx="50" cy="96" rx="19" ry="33" /><ellipse cx="50" cy="62" rx="12.5" ry="10" /><ellipse cx="50" cy="42" rx="16.5" ry="17" /><ellipse cx="50" cy="27" rx="11.5" ry="10" /></clipPath></defs><path class="tongue" d="M50 18 L50 9 M50 9 L47.5 6 M50 9 L52.5 6" stroke="#E0707E" stroke-width="2.2" stroke-linecap="round" fill="none" style="transform-origin:50px 18px"/><g class="leg a" style="transform-origin:37px 72px"><path d="M37 72 Q24 70 20 58" stroke="#a87632" stroke-width="9" stroke-linecap="round" fill="none"/><path d="M37 72 Q24 70 20 58" stroke="#eba23c" stroke-width="6" stroke-linecap="round" fill="none"/><circle cx="17" cy="58.5" r="2" fill="#eba23c" stroke="#a87632" stroke-width=".8"/><circle cx="20" cy="55" r="2" fill="#eba23c" stroke="#a87632" stroke-width=".8"/><circle cx="23" cy="58.5" r="2" fill="#eba23c" stroke="#a87632" stroke-width=".8"/></g><g class="leg b" style="transform-origin:63px 72px"><path d="M63 72 Q76 70 80 58" stroke="#a87632" stroke-width="9" stroke-linecap="round" fill="none"/><path d="M63 72 Q76 70 80 58" stroke="#eba23c" stroke-width="6" stroke-linecap="round" fill="none"/><circle cx="77" cy="58.5" r="2" fill="#eba23c" stroke="#a87632" stroke-width=".8"/><circle cx="80" cy="55" r="2" fill="#eba23c" stroke="#a87632" stroke-width=".8"/><circle cx="83" cy="58.5" r="2" fill="#eba23c" stroke="#a87632" stroke-width=".8"/></g><g class="leg b" style="transform-origin:36px 114px"><path d="M36 114 Q22 118 19 132" stroke="#a87632" stroke-width="9" stroke-linecap="round" fill="none"/><path d="M36 114 Q22 118 19 132" stroke="#eba23c" stroke-width="6" stroke-linecap="round" fill="none"/><circle cx="16" cy="131.5" r="2" fill="#eba23c" stroke="#a87632" stroke-width=".8"/><circle cx="19" cy="135" r="2" fill="#eba23c" stroke="#a87632" stroke-width=".8"/><circle cx="22" cy="131.5" r="2" fill="#eba23c" stroke="#a87632" stroke-width=".8"/></g><g class="leg a" style="transform-origin:64px 114px"><path d="M64 114 Q78 118 81 132" stroke="#a87632" stroke-width="9" stroke-linecap="round" fill="none"/><path d="M64 114 Q78 118 81 132" stroke="#eba23c" stroke-width="6" stroke-linecap="round" fill="none"/><circle cx="78" cy="131.5" r="2" fill="#eba23c" stroke="#a87632" stroke-width=".8"/><circle cx="81" cy="135" r="2" fill="#eba23c" stroke="#a87632" stroke-width=".8"/><circle cx="84" cy="131.5" r="2" fill="#eba23c" stroke="#a87632" stroke-width=".8"/></g><path d="M37 124 C28 150 38 178 50 198 C62 178 72 150 63 124 Z" fill="#a87632" stroke="#a87632" stroke-width="3.2"/><ellipse cx="50" cy="96" rx="19" ry="33" fill="#a87632" stroke="#a87632" stroke-width="3.2"/><ellipse cx="50" cy="62" rx="12.5" ry="10" fill="#a87632" stroke="#a87632" stroke-width="3.2"/><ellipse cx="50" cy="42" rx="16.5" ry="17" fill="#a87632" stroke="#a87632" stroke-width="3.2"/><ellipse cx="50" cy="27" rx="11.5" ry="10" fill="#a87632" stroke="#a87632" stroke-width="3.2"/><path d="M37 124 C28 150 38 178 50 198 C62 178 72 150 63 124 Z" fill="#ecc389"/><ellipse cx="50" cy="96" rx="19" ry="33" fill="#eba23c"/><ellipse cx="50" cy="62" rx="12.5" ry="10" fill="#eba23c"/><ellipse cx="50" cy="42" rx="16.5" ry="17" fill="#eba23c"/><ellipse cx="50" cy="27" rx="11.5" ry="10" fill="#eba23c"/><g clip-path="url(#lg1c)"><circle cx="54.4" cy="93.8" r="3.2" fill="#2A2521" opacity="1"/><circle cx="57.5" cy="45.1" r="2.4" fill="#2A2521" opacity="1"/><circle cx="40.0" cy="125.2" r="3.2" fill="#2A2521" opacity="1"/><circle cx="48.8" cy="58.5" r="3.2" fill="#2A2521" opacity="1"/><circle cx="60.8" cy="68.6" r="1.7" fill="#2A2521" opacity="1"/><circle cx="50.0" cy="136.2" r="2.6" fill="#2A2521" opacity="1"/><circle cx="28.2" cy="97.8" r="3.1" fill="#2A2521" opacity="1"/><circle cx="30.3" cy="119.4" r="1.3" fill="#2A2521" opacity="1"/><circle cx="39.7" cy="25.0" r="1.6" fill="#2A2521" opacity="1"/><circle cx="62.5" cy="108.4" r="1.3" fill="#2A2521" opacity="1"/><circle cx="35.6" cy="164.0" r="2.3" fill="#2A2521" opacity="1"/><circle cx="63.6" cy="70.9" r="2.2" fill="#2A2521" opacity="1"/><circle cx="29.6" cy="23.1" r="2.5" fill="#2A2521" opacity="1"/><circle cx="54.3" cy="57.6" r="2.7" fill="#2A2521" opacity="1"/><circle cx="37.2" cy="68.0" r="2.9" fill="#2A2521" opacity="1"/><circle cx="65.8" cy="104.4" r="1.7" fill="#2A2521" opacity="1"/><circle cx="40.5" cy="66.2" r="1.4" fill="#2A2521" opacity="1"/><circle cx="57.0" cy="135.2" r="2.8" fill="#2A2521" opacity="1"/><circle cx="68.8" cy="29.7" r="3.4" fill="#2A2521" opacity="1"/><circle cx="47.0" cy="181.7" r="1.5" fill="#2A2521" opacity="1"/><circle cx="32.9" cy="16.8" r="2.0" fill="#2A2521" opacity="1"/><circle cx="49.2" cy="122.9" r="3.3" fill="#2A2521" opacity="1"/><circle cx="31.4" cy="142.1" r="3.4" fill="#2A2521" opacity="1"/><circle cx="40.2" cy="139.8" r="1.6" fill="#2A2521" opacity="1"/><circle cx="50.9" cy="160.3" r="1.5" fill="#2A2521" opacity="1"/><circle cx="71.8" cy="114.2" r="3.3" fill="#2A2521" opacity="1"/><circle cx="47.1" cy="117.0" r="2.0" fill="#2A2521" opacity="1"/><circle cx="54.2" cy="71.5" r="2.9" fill="#2A2521" opacity="1"/><circle cx="41.0" cy="94.1" r="3.1" fill="#2A2521" opacity="1"/><circle cx="58.6" cy="190.9" r="3.2" fill="#2A2521" opacity="1"/><circle cx="47.0" cy="111.0" r="1.9" fill="#2A2521" opacity="1"/><circle cx="32.4" cy="138.0" r="1.9" fill="#2A2521" opacity="1"/><circle cx="62.6" cy="175.1" r="1.4" fill="#2A2521" opacity="1"/><circle cx="48.9" cy="160.3" r="1.5" fill="#2A2521" opacity="1"/><circle cx="70.8" cy="45.8" r="2.8" fill="#2A2521" opacity="1"/><circle cx="58.8" cy="53.7" r="2.1" fill="#2A2521" opacity="1"/><circle cx="35.2" cy="130.5" r="2.0" fill="#2A2521" opacity="1"/><circle cx="37.1" cy="125.9" r="3.2" fill="#2A2521" opacity="1"/><circle cx="42.4" cy="155.1" r="2.1" fill="#2A2521" opacity="1"/><circle cx="33.8" cy="167.7" r="2.1" fill="#2A2521" opacity="1"/><circle cx="28.4" cy="145.3" r="2.7" fill="#2A2521" opacity="1"/><circle cx="66.5" cy="175.7" r="1.7" fill="#2A2521" opacity="1"/><circle cx="54.6" cy="101.1" r="1.6" fill="#2A2521" opacity="1"/><circle cx="30.1" cy="139.6" r="2.8" fill="#2A2521" opacity="1"/><circle cx="40.8" cy="63.0" r="2.0" fill="#2A2521" opacity="1"/><circle cx="29.3" cy="53.3" r="3.5" fill="#2A2521" opacity="1"/><circle cx="53.2" cy="190.0" r="1.6" fill="#2A2521" opacity="1"/><circle cx="35.5" cy="113.9" r="1.9" fill="#2A2521" opacity="1"/><circle cx="45.4" cy="91.3" r="2.2" fill="#2A2521" opacity="1"/><circle cx="58.2" cy="84.9" r="2.0" fill="#2A2521" opacity="1"/><circle cx="67.4" cy="72.3" r="2.3" fill="#2A2521" opacity="1"/><circle cx="54.9" cy="111.3" r="2.6" fill="#2A2521" opacity="1"/><circle cx="38.4" cy="71.9" r="1.9" fill="#2A2521" opacity="1"/><circle cx="42.1" cy="133.1" r="1.7" fill="#2A2521" opacity="1"/><ellipse cx="45" cy="88" rx="7" ry="20" fill="#fff" opacity=".13"/><ellipse cx="45" cy="38" rx="6" ry="7" fill="#fff" opacity=".12"/></g><circle cx="46" cy="20" r=".9" fill="#a87632"/><circle cx="54" cy="20" r=".9" fill="#a87632"/><g class="eye"><ellipse cx="35.5" cy="35" rx="4.6" ry="5.4" fill="#77705F" stroke="#a87632" stroke-width="1"/><rect x="34.8" y="31" width="1.4" height="8" rx=".7" fill="#16130F"/><circle cx="34.2" cy="33" r="1.1" fill="#fff" opacity=".8"/></g><g class="eye"><ellipse cx="64.5" cy="35" rx="4.6" ry="5.4" fill="#77705F" stroke="#a87632" stroke-width="1"/><rect x="63.8" y="31" width="1.4" height="8" rx=".7" fill="#16130F"/><circle cx="63.2" cy="33" r="1.1" fill="#fff" opacity=".8"/></g></g>
</svg>